{"title":"The.Stunt.Man.1980.iNTERNAL.DVDRip.XviD-EXViDiNT","uid":7012069,"size":1471837540,"categoryP":"video","categoryS":"movies","magnet":"?xt=urn:btih:31be7af32ffca194ad3d44bfee13c8efd89a2f17&amp;dn=The.Stunt.Man.1980.iNTERNAL.DVDRip.XviD-EXViDiNT&amp;tr=udp%3A%2F%2Ftracker.openbittorrent.com%3A80&amp;tr=udp%3A%2F%2Fopen.demonii.com%3A1337&amp;tr=udp%3A%2F%2Ftracker.coppersurfer.tk%3A6969&amp;tr=udp%3A%2F%2Fexodus.desync.com%3A6969","seeders":0,"leechers":1,"uploader":"TvTeam","files":5,"time":1328505434,"description":". \n &lt;a href=&quot;\nhttp://www.torrenting.com&quot; rel=&quot;nofollow&quot; target=&quot;_NEW&quot;&gt;\nhttp://www.torrenting.com&lt;/a&gt;          :     Once &amp; For all ;)\n\n\n               www . Torrenting . Com \n\n(((((((((((((= Enjoy No RAR releases =))))))))))))))))))))\n\n\n...................................NFO:....................................\n\n.                                                                                                     \n       \n     \n     \n       \n       \n     \n     \n                                         \n                                         \n                EXVID                    \n                                         \n         \n                                         \n         Filled the Archives             \n                                         \n         \n                                         \n                With:                    \n                                         \n         \n                                         \n                                    \n     E240                           \n                                    \n     SP               (C) 2009      \n                                         \n     \n     \n     \n                                                                                  \n                                                                                   \n                  The.Stunt.Man.1980.iNTERNAL.DVDRip.XviD-EXViDiNT                  \n                                                                                   \n                                                                                  \n     \n                                                                                               \nEXViD aims to iNTERNAL those releases which have been lost in the archives.\nEXViD aims to PRE non-internal releases which have poor sources and are likely skipped by others. &lt;a href=&quot;\nhttp://www.imdb.com/title/tt0081568/&quot; rel=&quot;nofollow&quot; target=&quot;_NEW&quot;&gt;\nhttp://www.imdb.com/title/tt0081568/&lt;/a&gt;\nSubtitles: None\nDate: 2012.01\n\nDirector: Richard Rush\n\nGenres: Action | Comedy | Drama | Romance | Thriller\n\nPlot:\nWhile on the run from the police, Steve Railsback hides in a group of moviemakers where he\npretends to be a stunt man. Both aided and endangered by the director (Peter O'Toole) he avoids\nboth the police and sudden death as a stuntman. The mixture of real danger and fantasy of the\nmovie is an interesting twist for the viewer as the two blend in individual scenes.\n\nCast:\nPeter O'Toole\t...\tEli Cross\nSteve Railsback\t...\tCameron\nBarbara Hershey\t...\tNina Franklin\nAllen Garfield\t...\tSam (as Allen Goorwitz)\nAlex Rocco\t...\tPolice Chief Jake\nSharon Farrell\t...\tDenise\nAdam Roarke\t...\tRaymond Bailey\nPhilip Bruns\t...\tAce\nCharles Bail\t...\tChuck Barton\nJohn Garwood\t...\tGabe\nJim Hess\t...\tHenry\nJohn Pearce\t...\tGarage Guard\nMichael Railsback\t...\tBurt\nGeorge Wallace\t...\tNina's Father\nDee Carroll\t...\tNina's Mother\n\nStats:\nFormat                                   : AVI\nFormat/Info                              : Audio Video Interleave\nFormat profile                           : OpenDML\nFile size                                : 1.37 GiB\nDuration                                 : 2h 10mn\nOverall bit rate                         : 1 504 Kbps\n\nVideo\nID                                       : 0\nFormat                                   : MPEG-4 Visual\nFormat profile                           : Advanced Simple@L5\nFormat settings, BVOP                    : 2\nFormat settings, QPel                    : No\nFormat settings, GMC                     : No warppoints\nFormat settings, Matrix                  : Default (H.263)\nCodec ID                                 : XVID\nCodec ID/Hint                            : XviD\nDuration                                 : 2h 10mn\nBit rate                                 : 1356 Kbps\nWidth                                    : 640 pixels\nHeight                                   : 352 pixels\nDisplay aspect ratio                     : 16:9\nFrame rate                               : 23.976 fps\nColor space                              : YUV\nChroma subsampling                       : 4:2:0\nBit depth                                : 8 bits\nScan type                                : Progressive\nCompression mode                         : Lossy\nBits/(Pixel*Frame)                       : 0.251\nStream size                              : 1268 MiB (91%)\nWriting library                          : XviD 64\n\nAudio\nID                                       : 1\nFormat                                   : MPEG Audio\nCodec ID                                 : 55\nCodec ID/Hint                            : MP3\nDuration                                 : 2h 10mn\nBit rate mode                            : Variable\nBit rate                                 : 133 Kbps\nChannel(s)                               : 2 channels\nSampling rate                            : 48.0 KHz\nCompression mode                         : Lossy\nStream size                              : 124 MiB (9%)\nAlignment                                : Aligned on interleaves\n\n\n\nRelease notes:\nEnjoy!\n\nLooking for:\n75TB+ Archives\nDUTCH/FLEMiSH Archives\n                                                                                                    \nGreets: CRBS EPiSODE FiCO FLS iLS KLASSiGER LiPSYNC MADE NODLABS RUNNER SPRiNTER      \n   \n\n                                                                    ASCII DONE BY XX^NFO 2oo9     \n \n\nRLS-Crc: 415243414445:42EECD90","torrent":{"xt":"urn:btih:31be7af32ffca194ad3d44bfee13c8efd89a2f17","amp;dn":"The.Stunt.Man.1980.iNTERNAL.DVDRip.XviD-EXViDiNT","amp;tr":["udp%3A%2F%2Ftracker.openbittorrent.com%3A80","udp%3A%2F%2Fopen.demonii.com%3A1337","udp%3A%2F%2Ftracker.coppersurfer.tk%3A6969","udp%3A%2F%2Fexodus.desync.com%3A6969"],"infoHash":"31be7af32ffca194ad3d44bfee13c8efd89a2f17","infoHashBuffer":{"type":"Buffer","data":[49,190,122,243,47,252,161,148,173,61,68,191,238,19,200,239,216,154,47,23]},"announce":[],"urlList":[]}}